<?xml version="1.0" standalone="no"?>
<!DOCTYPE svg PUBLIC "-//W3C//DTD SVG 1.1//EN" "http://www.w3.org/Graphics/SVG/1.1/DTD/svg11.dtd" >
<svg xmlns="http://www.w3.org/2000/svg">
<metadata></metadata>
<defs>
<font id="avantgardemditcttregular" horiz-adv-x="1024" >
<font-face units-per-em="2048" ascent="1638" descent="-410" />
<missing-glyph horiz-adv-x="512" />
<glyph horiz-adv-x="2048" />
<glyph horiz-adv-x="2048" />
<glyph unicode="&#xd;" horiz-adv-x="512" />
<glyph unicode=" "  horiz-adv-x="512" />
<glyph unicode="&#x09;" horiz-adv-x="512" />
<glyph unicode="&#xa0;" horiz-adv-x="512" />
<glyph unicode="!" horiz-adv-x="491" d="M150 0v225h192v-225h-192zM150 336v1030h192v-1030h-192z" />
<glyph unicode="&#x22;" horiz-adv-x="724" d="M100 1366h205l-35 -549h-135zM420 1366h205l-35 -549h-135z" />
<glyph unicode="#" horiz-adv-x="1228" d="M51 408l25 167h223l37 242h-221l24 168h221l60 381h188l-59 -381h244l59 381h190l-59 -381h217l-26 -168h-218l-36 -242h219l-25 -167h-221l-64 -408h-188l64 408h-244l-66 -408h-186l63 408h-221zM485 575h246l37 242h-246z" />
<glyph unicode="$" d="M98 424h170q8 -96 65.5 -151.5t147.5 -55.5q86 0 142.5 60.5t56.5 150.5q0 84 -54.5 132t-181.5 81q-100 25 -146 51.5t-83 81.5q-61 90 -61 201q0 125 68.5 216t183.5 122v207h174v-207q254 -43 272 -320h-172q-25 156 -164 156q-76 0 -124 -48t-48 -126q0 -76 41 -111 t178 -69q174 -45 246 -152q61 -90 61 -217q0 -139 -76.5 -238.5t-213.5 -134.5v-205h-174v205q-133 31 -213 121q-86 96 -95 250z" />
<glyph unicode="%" horiz-adv-x="1796" d="M70 1047q0 143 104.5 244.5t251.5 101.5q150 0 254 -101.5t104 -244.5q0 -145 -104.5 -249t-253.5 -104q-147 0 -251.5 103.5t-104.5 249.5zM221 1044q0 -86 60.5 -147t144.5 -61q86 0 146.5 61t60.5 147t-60.5 146.5t-146.5 60.5q-84 0 -144.5 -60.5t-60.5 -146.5z M555 0l571 1366h115l-567 -1366h-119zM1012 326q0 143 104.5 244.5t251.5 101.5q150 0 254 -101.5t104 -244.5q0 -145 -104 -249t-254 -104q-147 0 -251.5 103.5t-104.5 249.5zM1163 324q0 -88 60.5 -148.5t144.5 -60.5q86 0 146.5 60.5t60.5 148.5q0 86 -60.5 146 t-146.5 60q-84 0 -144.5 -61t-60.5 -145z" />
<glyph unicode="&#x26;" horiz-adv-x="1284" d="M70 381q0 131 71.5 237.5t190.5 151.5q-78 82 -104.5 137.5t-26.5 134.5q0 150 100 250.5t246 100.5q143 0 241.5 -101.5t98.5 -249.5q0 -217 -230 -327l181 -178l151 303h221l-229 -451l274 -283l-133 -133l-237 240q-80 -117 -162 -170q-106 -70 -236 -70 q-176 0 -296.5 118t-120.5 290zM268 381q0 -90 62.5 -151.5t156.5 -61.5q169 0 265 182l-289 283q-195 -106 -195 -252zM399 1042q0 -71 72 -143l47 -47q106 61 139 99t33 100q0 61 -42 103t-103 42q-63 0 -104.5 -44t-41.5 -110z" />
<glyph unicode="'" horiz-adv-x="405" d="M100 1366h205l-35 -549h-135z" />
<glyph unicode="(" horiz-adv-x="667" d="M70 518q0 270 150.5 512t393.5 363v-224q-190 -162 -264 -303q-82 -158 -82 -346q1 -303 189 -514q53 -59 170 -149v-226q-254 121 -414 381q-143 233 -143 506z" />
<glyph unicode=")" horiz-adv-x="667" d="M41 1167v226q250 -119 414 -381q143 -231 143 -506q0 -272 -151.5 -513t-395.5 -362v224q193 162 266 303q82 158 82 344q0 299 -190 516q-55 61 -168 149z" />
<glyph unicode="*" d="M160 1063l41 123l250 -86l-5 266h132l-5 -266l250 86l41 -123l-254 -78l160 -213l-104 -76l-154 217l-154 -219l-104 78l160 213z" />
<glyph unicode="+" d="M68 600v172h352v338h184v-338h352v-172h-352v-338h-184v338h-352z" />
<glyph unicode="," horiz-adv-x="436" d="M123 0v225h190v-205q0 -217 -190 -256v115q68 29 67 105v16h-67z" />
<glyph unicode="-" horiz-adv-x="514" d="M0 430v191h514v-191h-514z" />
<glyph unicode="." horiz-adv-x="436" d="M123 0v225h190v-225h-190z" />
<glyph unicode="/" horiz-adv-x="823" d="M-20 -342l581 1708h168l-584 -1708h-165z" />
<glyph unicode="0" d="M70 453v477q0 203 125.5 333t320.5 130q188 0 313 -129t125 -322v-504q0 -238 -159 -364q-127 -100 -285 -101q-133 0 -240.5 71t-165.5 192q-35 76 -34 217zM262 438q0 -135 67.5 -213t186.5 -78q113 0 179.5 79t66.5 212v504q0 127 -66.5 202t-181.5 75t-183.5 -75 t-68.5 -202v-504z" />
<glyph unicode="1" d="M258 1190v176h393v-1366h-190v1190h-203z" />
<glyph unicode="2" d="M74 899v14q0 211 119.5 345.5t308.5 134.5q178 0 305 -130t127 -313q0 -104 -51 -205q-39 -76 -140 -180l-378 -391h571v-174h-856v160l538 547q123 125 123 249q0 109 -67.5 186t-165.5 77q-106 0 -175 -80t-69 -205q0 -25 2 -35h-192z" />
<glyph unicode="3" d="M47 401h191q4 -117 73.5 -185.5t182.5 -68.5q102 0 173.5 74t71.5 180q0 104 -73.5 174t-182.5 70h-69v193h65q92 0 146.5 52t54.5 140q0 78 -54.5 133.5t-129.5 55.5q-162 0 -185 -195h-190q8 164 114.5 266.5t266.5 102.5q158 0 263 -111t105 -276q0 -82 -25.5 -135.5 t-99.5 -122.5q184 -117 185 -342q0 -180 -130.5 -306.5t-316.5 -126.5q-182 0 -309 124t-127 304z" />
<glyph unicode="4" d="M23 215v184l622 967h193v-977h143v-174h-143v-215h-193v215h-622zM242 389h403v655z" />
<glyph unicode="5" d="M41 412h190q23 -123 96.5 -194t178.5 -71q113 0 193.5 89.5t80.5 212.5q0 139 -79.5 229t-202.5 90q-135 0 -230 -141l-166 37l115 702h623v-176h-465l-51 -301q82 53 190 53q195 0 326 -137t131 -342q0 -209 -134.5 -349.5t-332.5 -140.5q-188 0 -316.5 121t-146.5 318z " />
<glyph unicode="6" d="M41 453q0 153 102 313l383 600h228l-289 -448q49 8 80 8q186 0 312 -133.5t126 -327.5q0 -209 -135 -350.5t-334 -141.5q-195 0 -334 140.5t-139 339.5zM231 449q0 -125 83 -213.5t200 -88.5q115 0 197 87.5t82 209.5q0 127 -81 217.5t-194 90.5q-119 0 -203 -88.5 t-84 -214.5z" />
<glyph unicode="7" d="M131 1190v176h793v-176l-502 -1190h-213l516 1190h-594z" />
<glyph unicode="8" d="M80 401q0 213 178 353q-113 113 -113 264q0 156 108.5 265.5t262.5 109.5q150 0 258.5 -110.5t108.5 -264.5q0 -158 -121 -264q182 -125 182 -346q0 -180 -127 -307.5t-305 -127.5q-180 0 -306 124t-126 304zM272 391q0 -100 70 -172t168 -72q100 0 171 74t71 176 t-71 175t-169 73q-100 0 -170 -74.5t-70 -179.5zM336 1030q0 -80 51 -134t125 -54q78 0 128 53t50 137q0 78 -51 132.5t-125 54.5q-76 0 -127 -55.5t-51 -133.5z" />
<glyph unicode="9" d="M41 901q0 209 135 350.5t334 141.5q195 0 334 -140.5t139 -337.5q0 -151 -104 -315l-381 -600h-228l291 449q-51 -8 -80 -9q-186 0 -313 133.5t-127 327.5zM231 922q0 -127 81 -216.5t196 -89.5q117 0 201 85t84 208v11q0 123 -83 211t-200 88q-115 0 -197 -87.5 t-82 -209.5z" />
<glyph unicode=":" horiz-adv-x="436" d="M123 0v225h190v-225h-190zM123 799v225h190v-225h-190z" />
<glyph unicode=";" horiz-adv-x="436" d="M123 0v225h190v-205q0 -217 -190 -256v115q68 29 67 105v16h-67zM123 799v225h190v-225h-190z" />
<glyph unicode="&#x3c;" d="M68 600v158l888 426v-183l-692 -323l690 -324l2 -182z" />
<glyph unicode="=" d="M68 455v161h888v-161h-888zM68 780v162h888v-162h-888z" />
<glyph unicode="&#x3e;" d="M68 172v184l692 322l-690 323l-2 183l888 -426v-158z" />
<glyph unicode="?" horiz-adv-x="921" d="M27 977q10 184 125.5 300t289.5 116q168 0 289 -122t121 -292q0 -182 -123 -287l-43 -37q-78 -68 -110.5 -131t-49.5 -174h-190q6 240 209 428q115 106 114 193q0 96 -63.5 161.5t-155.5 65.5q-190 0 -219 -221h-194zM336 0v225h190v-225h-190z" />
<glyph unicode="@" horiz-adv-x="1501" d="M68 676q0 299 206.5 504.5t505.5 205.5q279 0 463 -172t184 -432q0 -190 -101 -335.5t-234 -145.5q-59 0 -101.5 36t-50.5 93q-94 -139 -254 -139q-125 0 -207 92t-82 233q0 170 106.5 292t252.5 122q156 0 219 -137l20 113h131l-82 -418q-12 -63 -12 -92q0 -86 68 -86 q80 0 145.5 114.5t65.5 255.5q0 213 -147.5 350.5t-377.5 137.5q-250 0 -420.5 -172t-170.5 -422q0 -184 98 -334t256 -207q113 -41 244 -41q225 0 415 86l33 -119q-197 -84 -446 -84q-319 0 -523 197t-204 504zM545 623q0 -90 48 -145.5t124 -55.5q90 0 152.5 85t62.5 206 q0 82 -44 132t-116 50q-92 0 -159.5 -81t-67.5 -191z" />
<glyph unicode="A" horiz-adv-x="1216" d="M0 0l518 1366h180l519 -1366h-211l-152 403h-492l-151 -403h-211zM434 586h350l-174 520z" />
<glyph unicode="B" horiz-adv-x="1067" d="M137 0v1366h355q201 0 313.5 -104.5t112.5 -274.5q0 -150 -123 -258q202 -120 202 -332q0 -188 -135 -301q-114 -96 -317 -96h-408zM336 182h217q109 0 177.5 59.5t68.5 155.5q0 102 -71 159.5t-200 57.5h-192v-432zM336 797h162q221 0 221 190q0 195 -232 195h-151v-385 z" />
<glyph unicode="C" horiz-adv-x="1447" d="M68 686q0 295 204.5 501t497.5 206q416 0 629 -375h-240q-165 192 -383 192h-2q-211 0 -358.5 -153.5t-147.5 -370.5q0 -215 148.5 -372.5t353.5 -157.5q219 0 375 180h244q-96 -172 -260 -267.5t-361 -95.5q-287 0 -493.5 210t-206.5 503z" />
<glyph unicode="D" horiz-adv-x="1345" d="M137 0v1366h484q283 0 458 -182q199 -205 199 -508q0 -289 -172 -477q-180 -199 -545 -199h-424zM336 182h162q274 0 415 115q166 135 166 379q0 219 -145 368q-135 137 -352 138h-246v-1000z" />
<glyph unicode="E" horiz-adv-x="960" d="M137 0v1366h737v-184h-538v-402h538v-182h-538v-416h538v-182h-737z" />
<glyph unicode="F" horiz-adv-x="880" d="M137 0v1366h688v-184h-489v-410h489v-182h-489v-590h-199z" />
<glyph unicode="G" horiz-adv-x="1536" d="M68 680q0 299 202.5 506t493.5 207q193 0 356.5 -99.5t255.5 -269.5h-231q-172 186 -373 186q-209 0 -356.5 -155.5t-147.5 -374.5q0 -213 149.5 -368.5t356.5 -155.5q178 0 324 123q90 76 147 219h-637v182h862q-4 -303 -205.5 -505t-498.5 -202q-291 0 -494.5 206 t-203.5 501z" />
<glyph unicode="H" horiz-adv-x="1234" d="M137 0v1366h199v-590h563v590h199v-1366h-199v594h-563v-594h-199z" />
<glyph unicode="I" horiz-adv-x="473" d="M137 0v1366h199v-1366h-199z" />
<glyph unicode="J" horiz-adv-x="876" d="M0 272h205q47 -116 162 -116h2q82 0 134 59t52 154v997h199v-1016q0 -162 -106.5 -269.5t-270.5 -107.5q-141 0 -247.5 84t-129.5 215z" />
<glyph unicode="K" horiz-adv-x="1103" d="M137 0v1366h199v-678l522 678h246l-535 -678l535 -688h-246l-522 688v-688h-199z" />
<glyph unicode="L" horiz-adv-x="843" d="M137 0v1366h199v-1184h473v-182h-672z" />
<glyph unicode="M" horiz-adv-x="1722" d="M137 0v1366h314l409 -1047l412 1047h313v-1366h-199v1153l-464 -1153h-121l-465 1153v-1153h-199z" />
<glyph unicode="N" horiz-adv-x="1357" d="M137 0v1366h217l668 -1040v1040h201v-1366h-207l-680 1055v-1055h-199z" />
<glyph unicode="O" horiz-adv-x="1556" d="M68 682q0 297 206.5 504t503.5 207t504 -207t207 -504q0 -293 -208 -501t-503 -208t-502.5 208t-207.5 501zM268 684q0 -223 147.5 -375.5t362.5 -152.5q217 0 363.5 151.5t146.5 376.5q0 221 -147.5 373.5t-362.5 152.5t-362.5 -152.5t-147.5 -373.5z" />
<glyph unicode="P" horiz-adv-x="1058" d="M137 0v1366h475q176 0 289 -114.5t113 -293.5q0 -170 -107 -284q-70 -76 -154 -105.5t-221 -29.5h-196v-539h-199zM336 721h205q127 0 199.5 63.5t72.5 173.5q0 223 -274 224h-203v-461z" />
<glyph unicode="Q" horiz-adv-x="1542" d="M68 688q0 297 202.5 501t499.5 204q295 0 500 -207t205 -504q0 -240 -168 -477q86 -47 180 -47h18v-185q-188 2 -344 105q-188 -104 -393 -105q-291 0 -495.5 209t-204.5 506zM266 674q0 -61 21 -131q104 43 258 43q196 -1 364 -99q133 -78 236 -161q131 166 131 356 q0 219 -147.5 373.5t-354.5 154.5q-211 0 -359.5 -156.5t-148.5 -379.5zM369 369q151 -213 409 -213q121 0 207 61q-248 184 -457 184q-94 0 -159 -32z" />
<glyph unicode="R" horiz-adv-x="1124" d="M137 0v1366h422q244 0 367 -116.5t123 -321.5q0 -238 -172 -346q-87 -56 -220 -74l383 -508h-249l-455 635v-635h-199zM336 662h137q377 0 377 266q0 115 -83 184.5t-220 69.5h-211v-520z" />
<glyph unicode="S" horiz-adv-x="942" d="M23 403h196q25 -247 230 -247h2q94 0 157.5 65.5t63.5 161.5q0 145 -170 203l-49 16l-58 19q-117 37 -151.5 55t-73.5 63q-92 102 -92 252q0 174 111.5 288t281.5 114q160 0 264.5 -105.5t112.5 -275.5h-203q-6 90 -57 144t-127 54q-74 0 -129.5 -56t-55.5 -132 q0 -80 47.5 -122t177.5 -79t190.5 -71.5t107.5 -102.5q72 -102 71 -237q0 -186 -120.5 -311.5t-300.5 -125.5q-184 0 -303 121t-123 309z" />
<glyph unicode="T" horiz-adv-x="768" d="M23 1182v184h722v-184h-260v-1182h-200v1182h-262z" />
<glyph unicode="U" horiz-adv-x="1161" d="M123 418v948h199v-922q0 -133 69.5 -210.5t190.5 -77.5q162 0 231 133q27 49 27 155v922h198v-948q0 -184 -125 -307q-141 -137 -335 -138q-193 0 -324 128t-131 317z" />
<glyph unicode="V" horiz-adv-x="1200" d="M-10 1366h215l397 -1024l395 1024h211l-546 -1366h-121z" />
<glyph unicode="W" horiz-adv-x="1667" d="M27 1366h206l263 -1028l266 1028h145l262 -1022l267 1022h202l-381 -1366h-174l-249 954l-250 -954h-176z" />
<glyph unicode="X" horiz-adv-x="1155" d="M0 0l453 684l-453 682h238l337 -518l343 518h237l-457 -682l453 -684h-236l-340 520l-342 -520h-233z" />
<glyph unicode="Y" horiz-adv-x="1044" d="M0 1366h223l301 -641l299 641h221l-421 -874v-492h-199v492z" />
<glyph unicode="Z" horiz-adv-x="935" d="M47 0v182l594 1000h-561v184h782v-184l-588 -1000h613v-182h-840z" />
<glyph unicode="[" horiz-adv-x="667" d="M135 131v729q0 184 94 316q49 70 101 112q76 66 182 105v-224q-180 -111 -180 -327v-643q0 -127 41 -205t139 -137v-226q-170 68 -273.5 205t-103.5 295z" />
<glyph unicode="\" d="M53 1536h180l699 -1706h-180z" />
<glyph unicode="]" horiz-adv-x="667" d="M156 -145q178 113 178 327v643q0 125 -41 204t-137 138v226q170 -68 273 -205t103 -295v-729q0 -184 -94 -316q-47 -63 -102 -112q-76 -63 -180 -105v224z" />
<glyph unicode="^" d="M39 729l352 641h242l352 -641h-197l-276 496l-276 -496h-197z" />
<glyph unicode="_" d="M0 -125h1024v-164h-1024v164z" />
<glyph unicode="`" d="M221 1401l88 112l359 -268l-90 -112z" />
<glyph unicode="a" horiz-adv-x="1271" d="M66 508q0 233 152.5 388t381.5 155q117 0 219.5 -48.5t153.5 -125.5v147h176v-1024h-176v160q-49 -74 -111 -113q-119 -74 -274 -74q-223 0 -372.5 154t-149.5 381zM256 510q0 -150 103.5 -256.5t246.5 -106.5q145 0 248.5 105.5t103.5 255.5q0 154 -102 261.5 t-250 107.5q-145 0 -247.5 -106.5t-102.5 -260.5z" />
<glyph unicode="b" horiz-adv-x="1263" d="M123 0v1366h192v-485q127 174 355 174q217 0 372.5 -161t155.5 -384q0 -225 -152.5 -381t-375.5 -156q-244 0 -369 172v-145h-178zM309 510q0 -152 101.5 -257.5t246.5 -105.5q143 0 246 107.5t103 257.5q0 154 -102 261.5t-245 107.5q-147 0 -248.5 -107.5 t-101.5 -263.5z" />
<glyph unicode="c" horiz-adv-x="1142" d="M66 514q0 225 151.5 381t374.5 156q176 0 318.5 -105.5t181.5 -263.5h-213q-106 195 -287 195q-145 0 -240.5 -103.5t-95.5 -259.5q0 -150 97.5 -258.5t232.5 -108.5q92 0 172 51.5t121 139.5h213q-57 -168 -192.5 -266.5t-311.5 -98.5q-221 0 -371.5 156t-150.5 385z " />
<glyph unicode="d" horiz-adv-x="1261" d="M66 518q0 223 148 378t361 155q109 0 213.5 -45t159.5 -117v477h191v-1366h-178v145q-137 -172 -367 -172q-225 0 -376.5 156t-151.5 389zM256 514q0 -154 101.5 -260.5t246.5 -106.5q152 0 254.5 109t102.5 270q0 147 -103.5 249t-255.5 102q-147 0 -246.5 -103.5 t-99.5 -259.5z" />
<glyph unicode="e" horiz-adv-x="1175" d="M66 514q0 225 153.5 385t372.5 160q213 0 365.5 -157t152.5 -376q0 -33 -6 -98h-846q31 -127 122 -204t216 -77q189 1 289 175h192q-57 -160 -190 -254.5t-299 -94.5q-215 0 -368.5 159t-153.5 382zM258 575h662q-6 127 -103.5 217.5t-226.5 90.5q-154 0 -252 -111 q-61 -70 -80 -197z" />
<glyph unicode="f" horiz-adv-x="579" d="M59 850v174h91v47q0 143 116 234q80 61 232 61h24v-168h-20q-160 0 -160 -127v-47h180v-174h-180v-850h-192v850h-91z" />
<glyph unicode="g" horiz-adv-x="1284" d="M66 516q0 223 160.5 379t389.5 156t367 -152v125h178v-909q0 -229 -157.5 -373.5t-405.5 -144.5q-215 0 -375 149q-78 72 -123 174h215q109 -147 293 -147q162 0 261.5 95t99.5 249v22q-147 -166 -359 -166q-221 0 -382.5 161t-161.5 382zM256 512q0 -150 104.5 -257.5 t249.5 -107.5q154 0 257.5 112t103.5 267q0 145 -104.5 248t-254.5 103q-147 0 -251.5 -106.5t-104.5 -258.5z" />
<glyph unicode="h" horiz-adv-x="1140" d="M123 0v1366h190v-446q102 131 295 131q188 0 303 -112t115 -298v-641h-192v580q0 297 -248 297q-125 0 -199 -80t-74 -217v-580h-190z" />
<glyph unicode="i" horiz-adv-x="436" d="M123 0v1024h190v-1024h-190zM123 1141v225h190v-225h-190z" />
<glyph unicode="j" horiz-adv-x="436" d="M-6 -201q80 4 104.5 48t24.5 182v995h190v-995q0 -141 -10 -187q-20 -90 -98 -157q-92 -80 -211 -88v202zM123 1141v225h190v-225h-190z" />
<glyph unicode="k" horiz-adv-x="970" d="M123 0v1366h190v-836l369 494h227l-370 -483l428 -541h-240l-414 530v-530h-190z" />
<glyph unicode="l" horiz-adv-x="436" d="M123 0v1366h190v-1366h-190z" />
<glyph unicode="m" horiz-adv-x="1783" d="M123 0v1024h178v-111q104 137 295 138q106 0 194.5 -47.5t124.5 -122.5q109 170 338 170q193 0 304.5 -113.5t111.5 -312.5v-625h-192v569q0 307 -244 308q-127 0 -191 -82q-53 -70 -53 -226v-569h-190v569q0 164 -54.5 236t-179.5 72q-147 0 -217 -113q-35 -57 -35 -195 v-569h-190z" />
<glyph unicode="n" horiz-adv-x="1144" d="M123 0v1024h178v-109q102 135 303 136q190 0 308 -117t118 -305v-629h-192v557q0 147 -43 215q-66 104 -213 105q-125 0 -195 -85t-70 -235v-557h-194z" />
<glyph unicode="o" horiz-adv-x="1234" d="M66 518q0 221 161.5 377t388.5 156q229 0 391 -156t162 -377q0 -225 -161.5 -385t-391.5 -160q-227 0 -388.5 160t-161.5 385zM256 514q0 -152 105 -259.5t255 -107.5t255.5 107.5t105.5 259.5q0 150 -105.5 256.5t-255.5 106.5t-255 -106.5t-105 -256.5z" />
<glyph unicode="p" horiz-adv-x="1259" d="M123 -342v1366h178v-158q125 184 365 185q225 0 376.5 -159t151.5 -394q0 -223 -148.5 -375t-367.5 -152q-254 0 -365 176v-489h-190zM309 514q0 -154 101.5 -260.5t246.5 -106.5t246 105.5t101 257.5q0 150 -103.5 258.5t-249.5 108.5q-141 0 -241.5 -106.5 t-100.5 -256.5z" />
<glyph unicode="q" horiz-adv-x="1261" d="M66 514q0 225 153.5 381t376.5 156q109 0 210 -45t155 -119v137h178v-1366h-191v483q-137 -168 -346 -168q-227 0 -381.5 156t-154.5 385zM256 514q0 -156 102 -261.5t254 -105.5q147 0 250 105.5t103 259.5t-103.5 259.5t-253.5 105.5t-251 -104.5t-101 -258.5z" />
<glyph unicode="r" horiz-adv-x="589" d="M123 0v1024h178v-92q92 113 264 119v-197q-252 -21 -252 -295v-559h-190z" />
<glyph unicode="s" horiz-adv-x="817" d="M43 334h193q12 -186 167 -187q68 0 111 37t43 97q0 59 -38 93t-142 68q-160 51 -224.5 124t-64.5 167q0 137 92.5 227.5t231.5 90.5q135 0 223 -84t90 -215h-190q-18 125 -127 125q-55 0 -91 -32t-36 -79q0 -51 31.5 -76.5t127.5 -54.5q162 -49 235 -135t73 -199 q0 -135 -104.5 -231.5t-250.5 -96.5q-156 0 -251 98.5t-99 262.5z" />
<glyph unicode="t" horiz-adv-x="542" d="M10 850v174h140v342h192v-342h168v-174h-168v-850h-192v850h-140z" />
<glyph unicode="u" horiz-adv-x="1144" d="M117 395v629h190v-557q0 -147 43 -215q66 -104 213 -105q125 0 195.5 85t70.5 235v557h193v-1024h-178v109q-90 -135 -301 -136q-193 0 -309.5 117t-116.5 305z" />
<glyph unicode="v" horiz-adv-x="933" d="M-4 1024h205l268 -733l264 733h205l-401 -1024h-136z" />
<glyph unicode="w" horiz-adv-x="1452" d="M16 1024h205l230 -666l213 666h127l213 -666l227 666h205l-379 -1024h-107l-223 688l-223 -688h-107z" />
<glyph unicode="x" horiz-adv-x="966" d="M10 0l355 524l-345 500h234l225 -338l223 338h234l-334 -500l356 -524h-227l-252 362l-246 -362h-223z" />
<glyph unicode="y" horiz-adv-x="1013" d="M-4 1024h207l301 -795l307 795h207l-565 -1366h-199l149 362z" />
<glyph unicode="z" horiz-adv-x="808" d="M41 0v147l489 703h-442v174h655v-193l-462 -657h499v-174h-739z" />
<glyph unicode="{" d="M281 428v152q117 29 116 174v348q0 152 70 218t227 66q37 0 84 -2v-159q-125 0 -161.5 -31t-36.5 -135v-318q0 -100 -27 -152t-96 -91q70 -39 96.5 -94.5t26.5 -153.5v-307q0 -104 35.5 -137t146.5 -33h16v-160l-47 -2h-43q-156 0 -223.5 69.5t-67.5 229.5v332 q0 158 -116 186z" />
<glyph unicode="|" d="M420 -512v2048h184v-2048h-184z" />
<glyph unicode="}" d="M274 -227q125 0 162 30.5t37 135.5v317q0 100 26.5 151.5t98.5 92.5q-70 39 -97.5 93t-27.5 152v310q0 104 -35 137t-145 33h-19v159l50 2h41q156 0 224 -70.5t68 -228.5v-331q0 -88 26 -129t89 -58v-151q-115 -29 -115 -174v-348q0 -152 -70.5 -218.5t-228.5 -66.5 q-37 0 -84 2v160z" />
<glyph unicode="~" horiz-adv-x="1366" d="M188 1247q70 143 131.5 196.5t157.5 53.5q80 0 225 -63q135 -59 191 -60q57 0 94 28t82 99l109 -63q-74 -150 -160 -201q-70 -41 -148 -41q-72 0 -180 47l-108 47q-66 29 -119 29q-94 0 -168 -139z" />
<glyph unicode="&#xa1;" horiz-adv-x="491" d="M150 -342v1024h192v-1024h-192zM150 799v225h192v-225h-192z" />
<glyph unicode="&#xa2;" d="M70 705q0 166 100 283.5t268 150.5v176h174v-176q260 -63 342 -295h-219q-55 111 -209 110q-113 0 -188.5 -74.5t-75.5 -185.5q0 -109 76.5 -182.5t189.5 -73.5q133 0 205 101h217q-84 -225 -338 -281v-180h-174v180q-174 39 -271 156.5t-97 290.5z" />
<glyph unicode="&#xa3;" d="M18 604v174h64q-33 78 -33 152q0 195 131 329t320 134q170 0 291.5 -100.5t154.5 -268.5h-207q-84 195 -245 195q-106 0 -180 -79t-74 -194q0 -100 69 -168h402v-174h-234q74 -115 74 -268q0 -76 -23 -162h60q104 0 165.5 60.5t61.5 162.5q0 53 -24 105h204 q10 -57 11 -103q0 -184 -112 -291.5t-304 -107.5h-512v174h235q45 78 45 162q0 178 -141 268h-199z" />
<glyph unicode="&#xa4;" horiz-adv-x="1366" d="M88 1235l102 102l201 -200q141 102 293 102q147 0 289 -100l198 198l103 -102l-199 -199q100 -139 101 -288q0 -150 -99 -287l201 -199l-100 -102l-201 198q-135 -100 -291 -100q-147 0 -295 98l-198 -196l-101 100l199 199q-102 133 -103 291q0 145 101 284zM358 748 q0 -135 95.5 -230.5t230.5 -95.5q133 0 228.5 95.5t95.5 230.5t-95.5 230t-228.5 95q-135 0 -230.5 -95t-95.5 -230z" />
<glyph unicode="&#xa5;" d="M31 1366h215l268 -600l266 600h213l-198 -432h153v-158h-227l-100 -219h286v-158h-299v-399h-190v399h-301v158h289l-101 219h-229v158h155z" />
<glyph unicode="&#xa7;" d="M59 592q0 186 170 287q-72 100 -71 194q0 135 102 227.5t254 92.5q158 0 256 -92.5t117 -256.5h-199q-31 160 -176 160q-70 0 -116 -41t-46 -102q0 -86 127 -150l254 -129q129 -66 181.5 -133t52.5 -164q0 -166 -158 -284q100 -119 100 -238q0 -164 -110.5 -268.5 t-284.5 -104.5t-286.5 110t-123.5 290h197q16 -215 219 -215q90 0 145.5 50t55.5 132q0 100 -166 188l-281 148q-117 61 -165 127.5t-48 171.5zM240 608q0 -90 106 -145l328 -170q109 88 108 170q0 49 -26.5 80.5t-104.5 70.5l-305 156q-106 -66 -106 -162z" />
<glyph unicode="&#xa8;" d="M268 1174v225h187v-225h-187zM569 1174v225h187v-225h-187z" />
<glyph unicode="&#xa9;" horiz-adv-x="1583" d="M82 682q0 295 208 503t503 208q293 0 500.5 -208t207.5 -503q0 -293 -208 -501t-500 -208q-295 0 -503 208t-208 501zM197 682q0 -248 174 -424t422 -176q246 0 419.5 176t173.5 424q0 250 -174 426t-419 176q-246 0 -421 -176t-175 -426zM373 686q0 176 124 299t302 123 q246 0 381 -225l6 -11h-158l-2 2q-94 113 -225 113q-123 0 -210 -89t-87 -214t87 -215t208 -90q115 0 219 104l2 2h160q-2 -6 -6 -10q-125 -219 -377 -219q-174 0 -299 127t-125 303z" />
<glyph unicode="&#xaa;" horiz-adv-x="681" d="M35 1090q0 125 83 207.5t206 82.5q111 0 192 -82v68h105v-547h-105v72q-63 -86 -199 -86q-121 0 -201.5 82t-80.5 203zM47 608v68h574v-68h-574zM147 1092q0 -76 53.5 -130.5t125.5 -54.5q76 0 129 53.5t53 129.5q0 78 -52.5 133t-127.5 55q-76 0 -128.5 -54.5 t-52.5 -131.5z" />
<glyph unicode="&#xab;" horiz-adv-x="733" d="M82 428v190l256 252v-208l-137 -138l137 -137v-207zM385 428v190l252 252v-208l-137 -138l137 -137v-207z" />
<glyph unicode="&#xac;" d="M68 381v166h888v-547h-184v381h-704z" />
<glyph unicode="&#xad;" horiz-adv-x="514" d="M0 430v191h514v-191h-514z" />
<glyph unicode="&#xae;" horiz-adv-x="1050" d="M98 1141q0 176 125 301t303 125q176 0 301 -125t125 -301q0 -178 -125 -303t-301 -125q-178 0 -303 125t-125 303zM166 1141q0 -150 105.5 -255.5t254.5 -105.5q147 0 253 105.5t106 255.5q0 147 -105.5 252.5t-253.5 105.5q-150 0 -255 -105.5t-105 -252.5zM379 915v451 h151q174 0 175 -147q0 -122 -125 -140l131 -164h-107l-141 185v-185h-84zM463 1141h39q119 0 119 78q0 72 -95 71h-63v-149z" />
<glyph unicode="&#xaf;" d="M205 1225v133h614v-133h-614z" />
<glyph unicode="&#xb0;" d="M213 1073q0 121 88 207t211 86t211 -86t88 -207t-88 -207t-211 -86t-211 86t-88 207zM330 1073q0 -74 53 -126t129 -52t129 52t53 126t-53 126t-129 52t-129 -52t-53 -126z" />
<glyph unicode="&#xb1;" d="M68 125v172h888v-172h-888zM68 715v170h352v340h184v-340h352v-170h-352v-340h-184v340h-352z" />
<glyph unicode="&#xb4;" d="M356 1245l359 268l88 -112l-357 -268z" />
<glyph unicode="&#xb6;" horiz-adv-x="1241" d="M47 1001q0 119 60.5 209t162 123t234.5 33h592v-145h-131v-1420h-158v1420h-201v-1420h-160v848q-12 -2 -28 -2q-164 0 -267.5 98.5t-103.5 255.5z" />
<glyph unicode="&#xb7;" horiz-adv-x="225" d="M0 563v266h225v-266h-225z" />
<glyph unicode="&#xb8;" d="M369 -301h98q20 -59 76 -59q78 0 78 75q0 74 -78 74q-33 0 -64 -29l-61 62l71 178h95l-52 -125q14 2 37 2q63 0 107.5 -45t44.5 -111q0 -76 -51.5 -125t-128.5 -49q-72 0 -119 41t-53 111z" />
<glyph unicode="&#xba;" horiz-adv-x="681" d="M43 1096q0 117 87 200.5t212 83.5q123 0 210 -84t87 -200q0 -121 -87 -206t-210 -85q-125 0 -212 85t-87 206zM57 608v68h568v-68h-568zM156 1094q0 -76 55 -131.5t131 -55.5t130 54.5t54 132.5q0 76 -54 130t-130 54t-131 -54.5t-55 -129.5z" />
<glyph unicode="&#xbb;" horiz-adv-x="735" d="M96 180v211l137 135l-137 138v206l252 -247l-2 -191zM403 180v211l138 135l-138 138v206l250 -247v-191z" />
<glyph unicode="&#xbf;" horiz-adv-x="921" d="M70 45q0 182 123 287l43 37q78 68 110.5 131t48.5 174h191q-6 -240 -209 -428q-115 -106 -115 -193q0 -96 63.5 -161.5t155.5 -65.5q193 0 217 221h195q-8 -184 -123 -300t-291 -116q-168 0 -288.5 122t-120.5 292zM395 799v225h191v-225h-191z" />
<glyph unicode="&#xc0;" horiz-adv-x="1216" d="M0 0l518 1366h180l519 -1366h-211l-152 403h-492l-151 -403h-211zM377 1694l78 143l411 -235l-73 -134zM434 586h350l-174 520z" />
<glyph unicode="&#xc1;" horiz-adv-x="1216" d="M0 0l518 1366h180l519 -1366h-211l-152 403h-492l-151 -403h-211zM350 1602l412 235l78 -143l-416 -226zM434 586h350l-174 520z" />
<glyph unicode="&#xc2;" horiz-adv-x="1216" d="M0 0l518 1366h180l519 -1366h-211l-152 403h-492l-151 -403h-211zM258 1505l256 248h184l260 -248h-221l-125 127l-135 -127h-219zM434 586h350l-174 520z" />
<glyph unicode="&#xc3;" horiz-adv-x="1216" d="M0 0l518 1366h180l519 -1366h-211l-152 403h-492l-151 -403h-211zM260 1653q117 74 195 73q31 0 96 -16q131 -33 172 -33q43 0 123 37q11 5 31 15l79 -119q-106 -84 -206 -84q-39 0 -187 35q-51 12 -82 12q-53 0 -133 -39zM434 586h350l-174 520z" />
<glyph unicode="&#xc4;" horiz-adv-x="1216" d="M0 0l518 1366h180l519 -1366h-211l-152 403h-492l-151 -403h-211zM356 1516v225h191v-225h-191zM434 586h350l-174 520zM670 1516v225h190v-225h-190z" />
<glyph unicode="&#xc5;" horiz-adv-x="1216" d="M0 0l518 1366h180l519 -1366h-211l-152 403h-492l-151 -403h-211zM403 1665q0 86 60.5 145.5t144.5 59.5t144.5 -59.5t60.5 -145.5q0 -84 -60.5 -144.5t-144.5 -60.5t-144.5 60.5t-60.5 144.5zM434 586h350l-174 520zM512 1665q0 -41 27.5 -69.5t68.5 -28.5t69 28.5 t28 69.5t-29 70.5t-68 29.5t-67.5 -29.5t-28.5 -70.5z" />
<glyph unicode="&#xc6;" horiz-adv-x="1642" d="M-41 0l918 1366h679v-184h-464v-402h464v-182h-464v-416h464v-182h-663v379h-451l-249 -379h-234zM573 561h320v508z" />
<glyph unicode="&#xc7;" horiz-adv-x="1447" d="M68 686q0 295 204.5 501t497.5 206q416 0 629 -375h-240q-166 193 -385 192q-211 0 -358.5 -153.5t-147.5 -370.5q0 -215 148.5 -372.5t353.5 -157.5q219 0 375 180h244q-197 -346 -596 -363l-45 -108q16 2 40 2q70 0 116 -47t46 -119q0 -82 -55 -135t-139 -53 q-76 0 -126 45t-59 118h105q25 -63 82 -63q84 0 84 82q0 78 -84 78q-37 0 -66 -29l-67 63l65 170q-266 33 -444 236t-178 473z" />
<glyph unicode="&#xc8;" horiz-adv-x="960" d="M137 0v1366h737v-184h-538v-402h538v-182h-538v-416h538v-182h-737zM274 1694l78 143l412 -235l-74 -134z" />
<glyph unicode="&#xc9;" horiz-adv-x="960" d="M137 0v1366h737v-184h-538v-402h538v-182h-538v-416h538v-182h-737zM246 1602l411 235l80 -143l-415 -226z" />
<glyph unicode="&#xca;" horiz-adv-x="960" d="M137 0v1366h737v-184h-538v-402h538v-182h-538v-416h538v-182h-737zM156 1505l256 248h184l260 -248h-221l-127 127l-133 -127h-219z" />
<glyph unicode="&#xcb;" horiz-adv-x="960" d="M137 0v1366h737v-184h-538v-402h538v-182h-538v-416h538v-182h-737zM252 1516v225h192v-225h-192zM567 1516v225h191v-225h-191z" />
<glyph unicode="&#xcc;" horiz-adv-x="473" d="M4 1694l80 143l412 -235l-76 -134zM137 0v1366h199v-1366h-199z" />
<glyph unicode="&#xcd;" horiz-adv-x="473" d="M-23 1602l412 235l78 -143l-416 -226zM137 0v1366h199v-1366h-199z" />
<glyph unicode="&#xce;" horiz-adv-x="473" d="M-47 1505l207 248h149l211 -248h-178l-102 127l-109 -127h-178zM137 0v1366h199v-1366h-199z" />
<glyph unicode="&#xcf;" horiz-adv-x="473" d="M12 1516v225h181v-225h-181zM137 0v1366h199v-1366h-199zM281 1516v225h180v-225h-180z" />
<glyph unicode="&#xd1;" horiz-adv-x="1357" d="M137 0v1366h217l668 -1040v1040h201v-1366h-207l-680 1055v-1055h-199zM332 1653q117 74 194 73q31 0 97 -16q131 -33 172 -33t120 37q17 7 31 15l82 -119q-109 -84 -207 -84q-39 0 -186 35q-51 12 -82 12q-53 0 -133 -39z" />
<glyph unicode="&#xd2;" horiz-adv-x="1556" d="M68 682q0 297 206.5 504t503.5 207t504 -207t207 -504q0 -293 -208 -501t-503 -208t-502.5 208t-207.5 501zM268 684q0 -223 147.5 -375.5t362.5 -152.5q217 0 363.5 151.5t146.5 376.5q0 221 -147.5 373.5t-362.5 152.5t-362.5 -152.5t-147.5 -373.5zM547 1694l78 143 l411 -235l-73 -134z" />
<glyph unicode="&#xd3;" horiz-adv-x="1556" d="M68 682q0 297 206.5 504t503.5 207t504 -207t207 -504q0 -293 -208 -501t-503 -208t-502.5 208t-207.5 501zM268 684q0 -223 147.5 -375.5t362.5 -152.5q217 0 363.5 151.5t146.5 376.5q0 221 -147.5 373.5t-362.5 152.5t-362.5 -152.5t-147.5 -373.5zM520 1602l412 235 l78 -143l-416 -226z" />
<glyph unicode="&#xd4;" horiz-adv-x="1556" d="M68 682q0 297 206.5 504t503.5 207t504 -207t207 -504q0 -293 -208 -501t-503 -208t-502.5 208t-207.5 501zM268 684q0 -223 147.5 -375.5t362.5 -152.5q217 0 363.5 151.5t146.5 376.5q0 221 -147.5 373.5t-362.5 152.5t-362.5 -152.5t-147.5 -373.5zM428 1505l256 248 h184l260 -248h-221l-125 127l-135 -127h-219z" />
<glyph unicode="&#xd5;" horiz-adv-x="1556" d="M68 682q0 297 206.5 504t503.5 207t504 -207t207 -504q0 -293 -208 -501t-503 -208t-502.5 208t-207.5 501zM268 684q0 -223 147.5 -375.5t362.5 -152.5q217 0 363.5 151.5t146.5 376.5q0 221 -147.5 373.5t-362.5 152.5t-362.5 -152.5t-147.5 -373.5zM430 1653 q117 74 195 73q31 0 96 -16q131 -33 172 -33q43 0 123 37q11 5 31 15l79 -119q-106 -84 -206 -84q-39 0 -187 35q-51 12 -82 12q-53 0 -133 -39z" />
<glyph unicode="&#xd6;" horiz-adv-x="1556" d="M68 682q0 297 206.5 504t503.5 207t504 -207t207 -504q0 -293 -208 -501t-503 -208t-502.5 208t-207.5 501zM268 684q0 -223 147.5 -375.5t362.5 -152.5q217 0 363.5 151.5t146.5 376.5q0 221 -147.5 373.5t-362.5 152.5t-362.5 -152.5t-147.5 -373.5zM526 1516v225h191 v-225h-191zM840 1516v225h190v-225h-190z" />
<glyph unicode="&#xd7;" horiz-adv-x="1124" d="M117 129l356 354l-356 355l90 90l356 -355l355 353l90 -88l-357 -355l357 -354l-90 -90l-355 356l-356 -356z" />
<glyph unicode="&#xd8;" horiz-adv-x="1556" d="M68 682q0 297 206.5 504t501.5 207q186 0 346 -86l129 174l152 -107l-133 -178q219 -213 219 -514q0 -293 -208 -501t-503 -208q-186 0 -348 90l-131 -176l-145 107l133 178q-219 215 -219 510zM268 684q0 -199 131 -358l613 831q-109 53 -230 53q-236 0 -383 -174 q-131 -155 -131 -352zM541 211q109 -55 237 -55q217 0 363.5 151.5t146.5 376.5q0 190 -133 356z" />
<glyph unicode="&#xd9;" horiz-adv-x="1161" d="M123 418v948h199v-922q0 -133 69.5 -210.5t190.5 -77.5q162 0 231 133q27 49 27 155v922h198v-948q0 -184 -125 -307q-141 -137 -335 -138q-193 0 -324 128t-131 317zM350 1694l78 143l412 -235l-74 -134z" />
<glyph unicode="&#xda;" horiz-adv-x="1161" d="M123 418v948h199v-922q0 -133 69.5 -210.5t190.5 -77.5q162 0 231 133q27 49 27 155v922h198v-948q0 -184 -125 -307q-141 -137 -335 -138q-193 0 -324 128t-131 317zM322 1602l411 235l80 -143l-416 -226z" />
<glyph unicode="&#xdb;" horiz-adv-x="1161" d="M123 418v948h199v-922q0 -133 69.5 -210.5t190.5 -77.5q162 0 231 133q27 49 27 155v922h198v-948q0 -184 -125 -307q-141 -137 -335 -138q-193 0 -324 128t-131 317zM231 1505l256 248h185l260 -248h-221l-127 127l-133 -127h-220z" />
<glyph unicode="&#xdc;" horiz-adv-x="1161" d="M123 418v948h199v-922q0 -133 69.5 -210.5t190.5 -77.5q162 0 231 133q27 49 27 155v922h198v-948q0 -184 -125 -307q-141 -137 -335 -138q-193 0 -324 128t-131 317zM328 1516v225h192v-225h-192zM643 1516v225h191v-225h-191z" />
<glyph unicode="&#xdf;" horiz-adv-x="1169" d="M117 0v952q0 195 110.5 318t288.5 123q168 0 288 -119t120 -285q0 -139 -107 -223q141 -35 219 -148q68 -98 68 -215q0 -186 -121 -308t-303 -122q-158 0 -277 105q-66 57 -96 149v-227h-190zM309 358h154q16 -96 76.5 -153.5t148.5 -57.5q94 0 159.5 69t65.5 169 q0 106 -74.5 167.5t-207.5 61.5h-133v170q236 6 235 215q0 92 -61.5 156t-151.5 64q-211 -1 -211 -267v-594z" />
<glyph unicode="&#xe0;" horiz-adv-x="1271" d="M66 508q0 233 152.5 388t381.5 155q117 0 219.5 -48.5t153.5 -125.5v147h176v-1024h-176v160q-49 -74 -111 -113q-119 -74 -274 -74q-223 0 -372.5 154t-149.5 381zM256 510q0 -150 103.5 -256.5t246.5 -106.5q145 0 248.5 105.5t103.5 255.5q0 154 -102 261.5 t-250 107.5q-145 0 -247.5 -106.5t-102.5 -260.5zM385 1401l90 112l356 -268l-88 -112z" />
<glyph unicode="&#xe1;" horiz-adv-x="1271" d="M66 508q0 233 152.5 388t381.5 155q117 0 219.5 -48.5t153.5 -125.5v147h176v-1024h-176v160q-49 -74 -111 -113q-119 -74 -274 -74q-223 0 -372.5 154t-149.5 381zM256 510q0 -150 103.5 -256.5t246.5 -106.5q145 0 248.5 105.5t103.5 255.5q0 154 -102 261.5 t-250 107.5q-145 0 -247.5 -106.5t-102.5 -260.5zM385 1245l358 268l88 -112l-356 -268z" />
<glyph unicode="&#xe2;" horiz-adv-x="1271" d="M66 508q0 233 152.5 388t381.5 155q117 0 219.5 -48.5t153.5 -125.5v147h176v-1024h-176v160q-49 -74 -111 -113q-119 -74 -274 -74q-223 0 -372.5 154t-149.5 381zM256 510q0 -150 103.5 -256.5t246.5 -106.5q145 0 248.5 105.5t103.5 255.5q0 154 -102 261.5 t-250 107.5q-145 0 -247.5 -106.5t-102.5 -260.5zM289 1153l233 277h185l235 -277h-211l-113 156l-118 -156h-211z" />
<glyph unicode="&#xe3;" horiz-adv-x="1271" d="M66 508q0 233 152.5 388t381.5 155q117 0 219.5 -48.5t153.5 -125.5v147h176v-1024h-176v160q-49 -74 -111 -113q-119 -74 -274 -74q-223 0 -372.5 154t-149.5 381zM256 510q0 -150 103.5 -256.5t246.5 -106.5q145 0 248.5 105.5t103.5 255.5q0 154 -102 261.5 t-250 107.5q-145 0 -247.5 -106.5t-102.5 -260.5zM309 1317q109 72 183 72q31 0 92 -17q125 -33 161 -33q33 0 113 37q8 5 31 15l76 -111q-76 -92 -195 -92q-37 0 -176 35q-49 12 -78 12q-49 0 -125 -39z" />
<glyph unicode="&#xe4;" horiz-adv-x="1271" d="M66 508q0 233 152.5 388t381.5 155q117 0 219.5 -48.5t153.5 -125.5v147h176v-1024h-176v160q-49 -74 -111 -113q-119 -74 -274 -74q-223 0 -372.5 154t-149.5 381zM256 510q0 -150 103.5 -256.5t246.5 -106.5q145 0 248.5 105.5t103.5 255.5q0 154 -102 261.5 t-250 107.5q-145 0 -247.5 -106.5t-102.5 -260.5zM377 1174v225h186v-225h-186zM680 1174v225h184v-225h-184z" />
<glyph unicode="&#xe5;" horiz-adv-x="1271" d="M66 508q0 233 152.5 388t381.5 155q117 0 219.5 -48.5t153.5 -125.5v147h176v-1024h-176v160q-49 -74 -111 -113q-119 -74 -274 -74q-223 0 -372.5 154t-149.5 381zM256 510q0 -150 103.5 -256.5t246.5 -106.5q145 0 248.5 105.5t103.5 255.5q0 154 -102 261.5 t-250 107.5q-145 0 -247.5 -106.5t-102.5 -260.5zM444 1337q0 86 59.5 145.5t145.5 59.5q84 0 144.5 -59.5t60.5 -145.5q0 -84 -60.5 -144t-144.5 -60q-86 0 -145.5 60t-59.5 144zM549 1337q0 -43 29.5 -72.5t70.5 -29.5t70 29.5t29 72.5t-29 74t-70 31t-70.5 -31t-29.5 -74 z" />
<glyph unicode="&#xe6;" horiz-adv-x="2076" d="M66 520q0 225 155.5 378t384.5 153q227 0 365 -148v121h174v-121q131 147 344 148q217 0 369.5 -157t152.5 -378q0 -10 -4 -88h-854q20 -121 116.5 -201t217.5 -80q205 0 297 177h196q-57 -158 -192 -254.5t-305 -96.5q-176 0 -338 146v-119h-174v119 q-156 -145 -359 -146q-231 0 -388.5 157t-157.5 390zM256 516q0 -158 98 -263.5t248 -105.5q154 0 256.5 105.5t102.5 263.5q0 154 -102.5 257.5t-254.5 103.5t-250 -102.5t-98 -258.5zM1153 575h666q-10 135 -101.5 218.5t-228.5 83.5q-141 0 -230.5 -80.5t-105.5 -221.5z " />
<glyph unicode="&#xe7;" horiz-adv-x="1142" d="M66 514q0 225 151.5 381t374.5 156q176 0 318.5 -105.5t181.5 -263.5h-213q-106 195 -287 195q-145 0 -240.5 -103.5t-95.5 -259.5q0 -150 97.5 -258.5t232.5 -108.5q92 0 172 51.5t121 139.5h213q-51 -156 -174 -253t-281 -110l-43 -100q14 2 37 2q63 0 107 -45t44 -111 q0 -76 -51 -125t-129 -49q-72 0 -119 41t-53 111h98q20 -59 76 -59q78 0 78 75q0 74 -78 74q-33 0 -63 -29l-62 62l64 153q-205 14 -341 168t-136 371z" />
<glyph unicode="&#xe8;" horiz-adv-x="1175" d="M66 514q0 225 153.5 385t372.5 160q213 0 365.5 -157t152.5 -376q0 -33 -6 -98h-846q31 -127 122 -204t216 -77q189 1 289 175h192q-57 -160 -190 -254.5t-299 -94.5q-215 0 -368.5 159t-153.5 382zM258 575h662q-6 127 -103.5 217.5t-226.5 90.5q-154 0 -252 -111 q-61 -70 -80 -197zM365 1401l90 112l356 -268l-90 -112z" />
<glyph unicode="&#xe9;" horiz-adv-x="1175" d="M66 514q0 225 153.5 385t372.5 160q213 0 365.5 -157t152.5 -376q0 -33 -6 -98h-846q31 -127 122 -204t216 -77q189 1 289 175h192q-57 -160 -190 -254.5t-299 -94.5q-215 0 -368.5 159t-153.5 382zM258 575h662q-6 127 -103.5 217.5t-226.5 90.5q-154 0 -252 -111 q-61 -70 -80 -197zM365 1245l356 268l90 -112l-356 -268z" />
<glyph unicode="&#xea;" horiz-adv-x="1175" d="M66 514q0 225 153.5 385t372.5 160q213 0 365.5 -157t152.5 -376q0 -33 -6 -98h-846q31 -127 122 -204t216 -77q189 1 289 175h192q-57 -160 -190 -254.5t-299 -94.5q-215 0 -368.5 159t-153.5 382zM258 575h662q-6 127 -103.5 217.5t-226.5 90.5q-154 0 -252 -111 q-61 -70 -80 -197zM262 1153l232 277h184l235 -277h-208l-115 156l-119 -156h-209z" />
<glyph unicode="&#xeb;" horiz-adv-x="1175" d="M66 514q0 225 153.5 385t372.5 160q213 0 365.5 -157t152.5 -376q0 -33 -6 -98h-846q31 -127 122 -204t216 -77q189 1 289 175h192q-57 -160 -190 -254.5t-299 -94.5q-215 0 -368.5 159t-153.5 382zM258 575h662q-6 127 -103.5 217.5t-226.5 90.5q-154 0 -252 -111 q-61 -70 -80 -197zM358 1174v225h185v-225h-185zM659 1174v225h187v-225h-187z" />
<glyph unicode="&#xec;" horiz-adv-x="436" d="M-4 1401l88 112l358 -268l-90 -112zM123 0v1024h190v-1024h-190z" />
<glyph unicode="&#xed;" horiz-adv-x="436" d="M-4 1245l356 268l90 -112l-358 -268zM123 0v1024h190v-1024h-190z" />
<glyph unicode="&#xee;" horiz-adv-x="436" d="M-18 1153l168 277h135l172 -277h-154l-82 156l-88 -156h-151zM123 0v1024h190v-1024h-190z" />
<glyph unicode="&#xef;" horiz-adv-x="436" d="M0 1174v225h174v-225h-174zM123 0v1024h190v-1024h-190zM262 1174v225h176v-225h-176z" />
<glyph unicode="&#xf1;" horiz-adv-x="1144" d="M123 0v1024h178v-109q102 135 303 136q190 0 308 -117t118 -305v-629h-192v557q0 147 -43 215q-66 104 -213 105q-125 0 -195 -85t-70 -235v-557h-194zM246 1317q109 72 182 72q31 0 92 -17q125 -33 162 -33q33 0 113 37q7 5 30 15l76 -111q-76 -92 -194 -92 q-37 0 -177 35q-49 12 -77 12q-49 0 -125 -39z" />
<glyph unicode="&#xf2;" horiz-adv-x="1234" d="M66 518q0 221 161.5 377t388.5 156q229 0 391 -156t162 -377q0 -225 -161.5 -385t-391.5 -160q-227 0 -388.5 160t-161.5 385zM256 514q0 -152 105 -259.5t255 -107.5t255.5 107.5t105.5 259.5q0 150 -105.5 256.5t-255.5 106.5t-255 -106.5t-105 -256.5zM393 1401 l90 112l357 -268l-88 -112z" />
<glyph unicode="&#xf3;" horiz-adv-x="1234" d="M66 518q0 221 161.5 377t388.5 156q229 0 391 -156t162 -377q0 -225 -161.5 -385t-391.5 -160q-227 0 -388.5 160t-161.5 385zM256 514q0 -152 105 -259.5t255 -107.5t255.5 107.5t105.5 259.5q0 150 -105.5 256.5t-255.5 106.5t-255 -106.5t-105 -256.5zM393 1245 l359 268l88 -112l-357 -268z" />
<glyph unicode="&#xf4;" horiz-adv-x="1234" d="M66 518q0 221 161.5 377t388.5 156q229 0 391 -156t162 -377q0 -225 -161.5 -385t-391.5 -160q-227 0 -388.5 160t-161.5 385zM256 514q0 -152 105 -259.5t255 -107.5t255.5 107.5t105.5 259.5q0 150 -105.5 256.5t-255.5 106.5t-255 -106.5t-105 -256.5zM291 1153 l233 277h185l235 -277h-211l-112 156l-121 -156h-209z" />
<glyph unicode="&#xf5;" horiz-adv-x="1234" d="M66 518q0 221 161.5 377t388.5 156q229 0 391 -156t162 -377q0 -225 -161.5 -385t-391.5 -160q-227 0 -388.5 160t-161.5 385zM256 514q0 -152 105 -259.5t255 -107.5t255.5 107.5t105.5 259.5q0 150 -105.5 256.5t-255.5 106.5t-255 -106.5t-105 -256.5zM289 1317 q109 72 184 72q29 0 90 -17q123 -33 164 -33q39 0 113 37q-1 1 28 15l76 -111q-72 -92 -192 -92q-37 0 -177 35q-49 12 -77 12q-49 0 -125 -39z" />
<glyph unicode="&#xf6;" horiz-adv-x="1234" d="M66 518q0 221 161.5 377t388.5 156q229 0 391 -156t162 -377q0 -225 -161.5 -385t-391.5 -160q-227 0 -388.5 160t-161.5 385zM256 514q0 -152 105 -259.5t255 -107.5t255.5 107.5t105.5 259.5q0 150 -105.5 256.5t-255.5 106.5t-255 -106.5t-105 -256.5zM373 1174v225 h186v-225h-186zM676 1174v225h184v-225h-184z" />
<glyph unicode="&#xf7;" d="M68 600v172h888v-172h-888zM395 322q0 47 34 80.5t83 33.5q47 0 82 -33.5t35 -80.5q0 -49 -35 -83t-82 -34t-82 34t-35 83zM395 1051q0 49 34 82.5t83 33.5q47 0 82 -33.5t35 -82.5q0 -47 -35 -81t-82 -34t-82 34t-35 81z" />
<glyph unicode="&#xf8;" horiz-adv-x="1234" d="M66 518q0 221 161.5 377t388.5 156q119 0 220 -43l94 145l147 -102l-90 -138q182 -156 182 -395q0 -225 -161.5 -385t-391.5 -160q-117 0 -219 43l-94 -145l-145 98l92 142q-184 168 -184 407zM256 512q0 -133 96 -246l385 590q-61 20 -121 21q-150 0 -255 -106.5 t-105 -258.5zM498 168q61 -20 118 -21q150 0 255.5 106.5t105.5 258.5q0 141 -92 246z" />
<glyph unicode="&#xf9;" horiz-adv-x="1144" d="M117 395v629h190v-557q0 -147 43 -215q66 -104 213 -105q125 0 195.5 85t70.5 235v557h193v-1024h-178v109q-90 -135 -301 -136q-193 0 -309.5 117t-116.5 305zM348 1401l90 112l357 -268l-88 -112z" />
<glyph unicode="&#xfa;" horiz-adv-x="1144" d="M117 395v629h190v-557q0 -147 43 -215q66 -104 213 -105q125 0 195.5 85t70.5 235v557h193v-1024h-178v109q-90 -135 -301 -136q-193 0 -309.5 117t-116.5 305zM348 1245l359 268l88 -112l-357 -268z" />
<glyph unicode="&#xfb;" horiz-adv-x="1144" d="M117 395v629h190v-557q0 -147 43 -215q66 -104 213 -105q125 0 195.5 85t70.5 235v557h193v-1024h-178v109q-90 -135 -301 -136q-193 0 -309.5 117t-116.5 305zM246 1153l233 277h185l235 -277h-211l-113 156l-120 -156h-209z" />
<glyph unicode="&#xfc;" horiz-adv-x="1144" d="M117 395v629h190v-557q0 -147 43 -215q66 -104 213 -105q125 0 195.5 85t70.5 235v557h193v-1024h-178v109q-90 -135 -301 -136q-193 0 -309.5 117t-116.5 305zM326 1174v225h184v-225h-184zM627 1174v225h186v-225h-186z" />
<glyph unicode="&#xff;" horiz-adv-x="1013" d="M-4 1024h207l301 -795l307 795h207l-565 -1366h-199l149 362zM264 1174v225h185v-225h-185zM565 1174v225h187v-225h-187z" />
<glyph unicode="&#x152;" horiz-adv-x="2017" d="M68 676q0 141 61 287.5t160 240.5q199 188 495 189q158 0 291 -61t205 -165v199h651v-184h-454v-402h454v-182h-454v-416h454v-182h-651v195q-63 -84 -137 -127q-162 -94 -363 -95q-305 0 -508.5 201t-203.5 502zM268 674q0 -221 145.5 -369.5t362.5 -148.5t360.5 146.5 t143.5 371.5q0 236 -143.5 386t-364.5 150q-213 0 -358.5 -154.5t-145.5 -381.5z" />
<glyph unicode="&#x153;" horiz-adv-x="2101" d="M66 514q0 231 155.5 385t388.5 154q303 0 463 -244q51 76 101 119q141 123 333 123q225 0 378 -155t153 -384q0 -2 -4 -84h-865q20 -123 115.5 -202t222.5 -79q213 0 305 179h195q-70 -174 -206 -263.5t-292 -89.5q-283 0 -436 246q-145 -246 -448 -246 q-242 0 -400.5 154t-158.5 387zM256 514q0 -158 101 -262.5t253 -104.5q158 0 261.5 103.5t103.5 261.5t-103.5 261.5t-259.5 103.5t-256 -102.5t-100 -260.5zM1167 575h680q-16 139 -100 216q-96 86 -240 86q-174 0 -274 -123q-54 -66 -66 -179z" />
<glyph unicode="&#x178;" horiz-adv-x="1044" d="M0 1366h223l301 -641l299 641h221l-421 -874v-492h-199v492zM270 1516v225h191v-225h-191zM584 1516v225h190v-225h-190z" />
<glyph unicode="&#x2c6;" d="M186 1153l232 277h184l236 -277h-209l-113 156l-121 -156h-209z" />
<glyph unicode="&#x2dc;" d="M184 1317q109 72 183 72q31 0 92 -17q123 -33 162 -33q41 0 114 37q0 1 29 15l76 -111q-72 -92 -195 -92q-33 0 -174 35q-49 12 -78 12q-49 0 -125 -39z" />
<glyph unicode="&#x2000;" horiz-adv-x="935" />
<glyph unicode="&#x2001;" horiz-adv-x="1870" />
<glyph unicode="&#x2002;" horiz-adv-x="935" />
<glyph unicode="&#x2003;" horiz-adv-x="1870" />
<glyph unicode="&#x2004;" horiz-adv-x="623" />
<glyph unicode="&#x2005;" horiz-adv-x="467" />
<glyph unicode="&#x2006;" horiz-adv-x="311" />
<glyph unicode="&#x2007;" horiz-adv-x="311" />
<glyph unicode="&#x2008;" horiz-adv-x="233" />
<glyph unicode="&#x2009;" horiz-adv-x="374" />
<glyph unicode="&#x200a;" horiz-adv-x="103" />
<glyph unicode="&#x2010;" horiz-adv-x="514" d="M0 430v191h514v-191h-514z" />
<glyph unicode="&#x2011;" horiz-adv-x="514" d="M0 430v191h514v-191h-514z" />
<glyph unicode="&#x2012;" horiz-adv-x="514" d="M0 430v191h514v-191h-514z" />
<glyph unicode="&#x2013;" d="M68 600v172h888v-172h-888z" />
<glyph unicode="&#x2014;" horiz-adv-x="1546" d="M0 430v191h1546v-191h-1546z" />
<glyph unicode="&#x2018;" horiz-adv-x="436" d="M123 905v205q0 217 190 256v-115q-68 -29 -67 -104v-17h67v-225h-190z" />
<glyph unicode="&#x2019;" horiz-adv-x="436" d="M123 905v115q68 25 67 104v17h-67v225h190v-205q0 -217 -190 -256z" />
<glyph unicode="&#x201a;" horiz-adv-x="436" d="M123 0v225h190v-205q0 -217 -190 -256v115q68 29 67 105v16h-67z" />
<glyph unicode="&#x201c;" horiz-adv-x="722" d="M123 905v205q0 217 190 256v-115q-68 -29 -67 -104v-17h67v-225h-190zM410 905v205q0 217 190 256v-115q-68 -29 -68 -104v-17h68v-225h-190z" />
<glyph unicode="&#x201d;" horiz-adv-x="722" d="M123 905v115q68 25 67 104v17h-67v225h190v-205q0 -217 -190 -256zM410 905v115q68 25 67 104v17h-67v225h190v-205q0 -217 -190 -256z" />
<glyph unicode="&#x201e;" horiz-adv-x="722" d="M123 0v225h190v-205q0 -217 -190 -256v115q68 29 67 105v16h-67zM410 0v225h190v-205q0 -217 -190 -256v115q68 29 67 105v16h-67z" />
<glyph unicode="&#x2022;" horiz-adv-x="1366" d="M401 696q0 119 83 203t200 84q115 0 198 -84t83 -203t-83 -202.5t-198 -83.5q-117 0 -200 83.5t-83 202.5z" />
<glyph unicode="&#x2026;" horiz-adv-x="1310" d="M123 0v225h190v-225h-190zM559 0v225h193v-225h-193zM997 0v225h191v-225h-191z" />
<glyph unicode="&#x202f;" horiz-adv-x="374" />
<glyph unicode="&#x2039;" horiz-adv-x="428" d="M82 428v190l252 252v-208l-137 -138l137 -137v-207z" />
<glyph unicode="&#x203a;" horiz-adv-x="430" d="M96 180v211l137 135l-137 138v206l252 -247l-2 -191z" />
<glyph unicode="&#x205f;" horiz-adv-x="467" />
<glyph unicode="&#x2122;" horiz-adv-x="1595" d="M41 1249v117h455v-117h-158v-661h-137v661h-160zM575 588v778h203l246 -575l246 575h203v-778h-136v618l-272 -618h-84l-270 618v-618h-136z" />
</font>
</defs>
</svg>
